# File created by Blade
# Date/Time:  Tue Jan 27 19:05:02 2015
# Frame Rate: 120.000 fps
#------------------------------------------------------
:FULLY-SPECIFIED
:DEGREES
3444
root -3.055748 31.767787 -6.164951 16.799291 -12.599378 -2.810991
Spine -2.976550 2.458034 -4.452481
Head 5.476249 15.902337 -1.261305
LeftShoulder -15.148500 14.795243 16.844261
LeftArm 10.542654 -40.570462 -78.601046
LeftForeArm 0.956566 -0.000000 103.035400
LeftHand -12.990174 -0.000000 37.092122
LeftHandThumb1 -26.253704 0.000000 33.147579
RightShoulder -1.289272 10.776063 -7.395478
RightArm 26.425080 -59.014120 75.188163
RightForeArm -29.756369 0.000000 20.234165
RightHand -12.539049 -0.000000 14.904897
RightHandThumb1 -24.326973 -0.000000 -32.862282
LeftUpLeg -21.201323 -2.059072 -5.522530
LeftLeg 16.815387 -0.000000 -0.000000
LeftFoot -24.557491 28.711009 -14.090756
LeftToeBase 9.810952 -0.000000 -0.000000
RightUpLeg -11.255594 6.139689 -3.503828
RightLeg 32.486834 -0.000000 -0.000000
RightFoot -25.258983 -12.453557 16.280111
RightToeBase -8.640275 -0.000000 0.000000
3445
root -3.068159 31.758300 -6.131229 16.579984 -12.445153 -2.688981
Spine -2.972501 2.363846 -4.572527
Head 5.946548 15.773602 -1.021240
LeftShoulder -15.179582 14.785897 16.847615
LeftArm 10.596414 -40.443056 -78.649580
LeftForeArm 1.083175 -0.000000 103.097044
LeftHand -13.062550 -0.000000 36.790044
LeftHandThumb1 -26.253704 0.000000 33.147579
RightShoulder -1.363370 10.723691 -7.372659
RightArm 26.372729 -59.076037 75.243102
RightForeArm -29.794187 -0.000000 20.165466
RightHand -12.562290 -0.000000 14.933592
RightHandThumb1 -24.326973 -0.000000 -32.862282
LeftUpLeg -20.976508 -2.082110 -5.619002
LeftLeg 16.892881 -0.000000 -0.000000
LeftFoot -24.636713 28.538482 -14.110895
LeftToeBase 9.775896 -0.000000 -0.000000
RightUpLeg -11.356317 6.127135 -3.417901
RightLeg 35.684267 -0.000000 -0.000000
RightFoot -25.921308 -13.164375 16.627901
RightToeBase -8.371697 -0.000000 0.000000
3446
root -3.068158 31.744480 -6.096072 16.324000 -12.266104 -2.459025
Spine -2.944613 2.248027 -4.758557
Head 6.332971 15.573552 -0.856970
LeftShoulder -15.167765 14.773372 16.852959
LeftArm 10.671511 -40.337833 -78.695322
LeftForeArm 1.286762 -0.000000 103.095552
LeftHand -13.063565 -0.000000 36.997638
LeftHandThumb1 -26.253704 0.000000 33.147579
RightShoulder -1.439389 10.748140 -7.412439
RightArm 26.084605 -59.093077 75.526318
RightForeArm -29.889509 -0.000000 20.122830
RightHand -12.528372 0.000000 14.981274
RightHandThumb1 -24.326973 -0.000000 -32.862282
LeftUpLeg -20.730149 -2.161147 -5.837312
LeftLeg 16.958046 -0.000000 -0.000000
LeftFoot -24.674440 28.379342 -14.116646
LeftToeBase 9.817184 -0.000000 -0.000000
RightUpLeg -11.554638 5.492874 -3.475615
RightLeg 39.225979 -0.000000 -0.000000
RightFoot -26.430947 -13.392290 16.872807
RightToeBase -7.548275 -0.000000 0.000000
3447
root -3.075161 31.731862 -6.064933 16.114061 -12.031780 -2.278922
Spine -2.942455 2.123378 -4.898060
Head 6.666040 15.383828 -0.687169
LeftShoulder -15.181948 14.690422 16.852364
LeftArm 10.743242 -40.211520 -78.682173
LeftForeArm 1.365170 -0.000000 103.072272
LeftHand -13.112110 -0.000000 37.069400
LeftHandThumb1 -26.253704 0.000000 33.147579
RightShoulder -1.539234 10.708610 -7.447276
RightArm 25.870281 -59.076808 75.740896
RightForeArm -29.938992 -0.000000 20.110592
RightHand -12.536403 -0.000000 15.064260
RightHandThumb1 -24.326973 -0.000000 -32.862282
LeftUpLeg -20.575859 -2.091414 -6.049549
LeftLeg 17.126864 -0.000000 -0.000000
LeftFoot -24.783914 28.164097 -14.144047
LeftToeBase 10.058300 -0.000000 -0.000000
RightUpLeg -11.718362 4.929830 -3.456838
RightLeg 42.700464 -0.000000 -0.000000
RightFoot -26.801980 -13.791475 17.015264
RightToeBase -6.968148 -0.000000 0.000000
3448
root -3.085997 31.724457 -6.039864 15.961685 -11.781029 -2.151656
Spine -2.975075 2.043075 -4.986271
Head 6.962371 15.222405 -0.555341
LeftShoulder -15.098584 14.596569 16.826732
LeftArm 10.754080 -40.155723 -78.598519
LeftForeArm 1.396997 -0.000000 103.065149
LeftHand -13.065016 -0.000000 36.883939
LeftHandThumb1 -26.253704 0.000000 33.147579
RightShoulder -1.676792 10.607773 -7.452380
RightArm 25.748129 -59.024988 75.858892
RightForeArm -29.981771 -0.000000 20.076981
RightHand -12.557238 -0.000000 15.044825
RightHandThumb1 -24.326973 -0.000000 -32.862282
LeftUpLeg -20.433456 -2.129451 -6.137083
LeftLeg 17.209055 -0.000000 -0.000000
LeftFoot -24.691928 27.954031 -13.936924
LeftToeBase 9.909305 -0.000000 -0.000000
RightUpLeg -11.822014 4.712977 -3.347300
RightLeg 46.013294 -0.000000 -0.000000
RightFoot -27.135397 -14.405686 17.261015
RightToeBase -6.407927 -0.000000 0.000000
3449
root -3.094293 31.717768 -6.016666 15.834112 -11.555882 -2.001801
Spine -3.023545 1.922875 -5.081418
Head 7.200460 15.041512 -0.475179
LeftShoulder -15.091355 14.493508 16.731812
LeftArm 10.733336 -40.094393 -78.414017
LeftForeArm 1.318366 -0.000000 103.036131
LeftHand -13.059419 -0.000000 36.814534
LeftHandThumb1 -26.253704 0.000000 33.147579
RightShoulder -1.748804 10.536038 -7.468814
RightArm 25.544374 -58.943456 76.066375
RightForeArm -30.027787 -0.000000 20.054389
RightHand -12.516000 -0.000000 15.101480
RightHandThumb1 -24.326973 -0.000000 -32.862282
LeftUpLeg -20.306915 -2.083547 -6.284560
LeftLeg 17.237710 -0.000000 -0.000000
LeftFoot -24.724603 27.697508 -13.990650
LeftToeBase 10.098519 -0.000000 -0.000000
RightUpLeg -11.967266 4.352383 -3.289014
RightLeg 49.385467 -0.000000 -0.000000
RightFoot -27.378407 -14.929615 17.365870
RightToeBase -6.143702 -0.000000 0.000000
3450
root -3.101552 31.709911 -5.991746 15.717971 -11.294000 -1.833153
Spine -3.092067 1.741576 -5.191124
Head 7.426262 14.938974 -0.402677
LeftShoulder -15.118671 14.450452 16.649037
LeftArm 10.792276 -40.055808 -78.297350
LeftForeArm 1.352110 -0.000000 102.978018
LeftHand -13.025401 -0.000000 36.928120
LeftHandThumb1 -26.253704 0.000000 33.147579
RightShoulder -1.782567 10.477158 -7.476000
RightArm 25.290066 -58.870662 76.300977
RightForeArm -30.069485 -0.000000 20.050435
RightHand -12.460809 -0.000000 15.163541
RightHandThumb1 -24.326973 -0.000000 -32.862282
LeftUpLeg -20.166098 -2.117977 -6.418975
LeftLeg 17.230681 -0.000000 -0.000000
LeftFoot -24.649131 27.455583 -13.852431
LeftToeBase 10.067898 -0.000000 -0.000000
RightUpLeg -12.121286 3.843752 -3.268538
RightLeg 52.803191 -0.000000 -0.000000
RightFoot -27.640376 -15.273623 17.594498
RightToeBase -5.652746 -0.000000 0.000000
3451
root -3.105528 31.702485 -5.969820 15.632020 -11.034266 -1.672909
Spine -3.169167 1.573185 -5.258298
Head 7.544282 14.793353 -0.426911
LeftShoulder -15.090354 14.378514 16.548810
LeftArm 10.780582 -40.113047 -78.158720
LeftForeArm 1.355967 -0.000000 102.921693
LeftHand -13.102722 -0.000000 36.896910
LeftHandThumb1 -26.253704 0.000000 33.147579
RightShoulder -1.819590 10.405443 -7.522495
RightArm 25.088313 -58.812187 76.497797
RightForeArm -30.076315 0.000000 20.045098
RightHand -12.450230 -0.000000 15.228880
RightHandThumb1 -24.326973 -0.000000 -32.862282
LeftUpLeg -20.053992 -2.144692 -6.553187
LeftLeg 17.207447 -0.000000 -0.000000
LeftFoot -24.574720 27.135715 -13.726328
LeftToeBase 10.239272 -0.000000 -0.000000
RightUpLeg -12.297288 3.254098 -3.271682
RightLeg 56.193337 -0.000000 -0.000000
RightFoot -27.782218 -15.552495 17.509084
RightToeBase -5.160848 -0.000000 0.000000
